<?xml version="1.0" encoding="UTF-8"?><svg id="Ebene_2" xmlns="http://www.w3.org/2000/svg" viewBox="0 0 113.39 156.18"><defs><style>.cls-1{fill:#ffe729;}</style></defs><g id="Layer_1"><path class="cls-1" d="M108.79,14.29c-2.72,.91-4.16-2.45-7.17-.75l-.34-.39c.76-1.78,2.57-1.38,4.34-1.13-1.11-3.2-6.15-2.52-6.44-5.69,2.45,.53,5.16,.56,7.39,1.66,1.8,1.87,5.33,2.89,5.87,5.57-.54,7.47,1.47,15.34,.82,22.42-3.93,3.68-6.95,8.63-11.81,11.16-4.27,1.74-8.17,4.28-12.38,6.11-3.75,2.01-5.87,6.1-10.35,7.22-9.51,5.36,5.53,10.54,9.12,14.17,5.97,5.61,9.87,12.95,14.1,19.86,1.03,1.55,.83,3.66-.69,4.84-6.1,3.93-9.75,10.13-14.91,14.96-5.69,4.93-12.49,7.92-8.4,16.51,.19,3.62,6.7,2.9,5.5,6.78-.7,1.75-1.69,3.51-1.54,5.47,.2,2.62,1.44,5.36-.04,7.85-.82,1.57,.2,3.44-1.07,4.84-.43,.64-1.29,.59-1.61-.12-1.16-2.92-1.45-6.09-3.44-8.64-3.28-4.32-2.3-9.64-3.26-14.55-1.58,2.78-4.27,4.98-5.03,8.14-.19,.69-.65,1.14-1.35,1.3-1.78-.99-.16-3.57-1.46-5.11-1.31-2.61,1.43-4.84,1.26-7.48-.29-3.44-1.27-7.5,1.64-10.17-.72-1.95-.89-4.3-2.26-5.95-2.24-2.64-1.72-6.41-3.31-9.42-4.7-8.69-8.66-18.35-6.75-28.38,.05-7.71-1.51-9.97,4.89-15.9,2.57-2.38,1.93-6.2,3.84-8.96,.61-1.03,1.84-1.69,2.21-2.86,.61-4.68,1.76-2.91,4.72-4.73-4.08-3.65-9.86-5.18-14.88-7.25l-.08,.16c3.8,2.11,5.22,4.84,4.21,9.07,.1,3.11-2.13,6.88-4.44,8.75-1.41-2.37,1.98-5.47,.47-8.04-.94,1-2.12,3.02-3.65,1.87,.14-.18,.24-.45,.42-.52,2.65-.93,1.82-3.96,3.52-5.59,2.71-2.64-12.17-5.69-14.26-7.87-6.27-1.91-10.71,4.8-16.43,6.23,2.65,4.87,10.03,4.31,12.81,9.4,2.5,2.85,2.74,6.63,4.44,9.85,2.43,3.88,1.11,8.61,3.18,12.65,2.17,7.68,.03,16.1,2.74,23.83,1.74,7.98-4.51,15.74-4.31,23.81-.37,3.96,1.61,7.84,.59,11.78-1.72,5.91-1.12,12.17,.4,18.06,1.08,2.49-.05,5.48-2.62,2.4-2.2-1.75-5.4-2.75-5.42-6.07,.19-3.75-2.16-6.79-4.17-9.74-3.82-8.09,6.6-3.98,5.88-11.14-.54-7.15-5.28-14.69-1.19-21.51,.43-1.47,1.92-2.94,1.29-4.51-1.98-4.51-5.04-8.85-5.18-13.9-.26-1.72,.49-3.75-1.26-4.83-2.33,.76-3.59,3.08-4.99,4.92-1.62,2.55-4.44,3.93-6.13,6.44-1.08,2.1,1.41,4.48-.02,6.61-2.02,2.71-.8,5.99-2.56,8.62-.87,.91-.84,2.16-1.3,3.25-1.65,2.64-5.13-4.59-5.28-5.95-.13-1.56-.2-3.1,.58-4.57,2.24-5.42,.93-11.8,3.61-17.24,2.69-3.77,1.65-8.56,4.62-12.17,1.57-2.21,3.78-3.74,6-5.25,3.23-3.41-3.53-7.13-6.58-7.26-2.92,0-5.5,1.96-8.33,2.59-3.09,1.23-5.56-2.48-4.61-5.25,1.06-3.37,4.78-11.56-1.52-11.31-5.17,.12-8.23-6.18-5.34-10.28,.78-1.28,1.74-2.35,3.09-3.06,.15-.08,.3-.38,.27-.55C2.26,19.06-5.43,8.34,7.58,1.58c1.06-.14,6.27-2.88,5.63-.8-1.61,2.37-5.25,2.54-6.07,5.73,1.52-.1,2.77-1,4.08,.07,.49,.26,.71,1.16-.08,1.09-1.18-.06-2.46-.45-3.44,.43-1.04,.98-2.26,1.33-3.65,1.49-.92,6.9,4.12,12.36,5.13,18.86,1.88,.45,3.99,.48,5.09,2.26,.65,1.44,2.55,.96,3.28,2.33,.41,.67,.51,.69,1.2,.34,5.73-1.31,11.08-3.7,16.55-5.81,2.94-.41,8.75-1.25,11.07,.66,.89,1.03,1.99,.93,3.12,.78,1.11-.08,2.28-.74,3.37-.32,4.21,2.2,8.54,4.25,13.29,4.99,9.67,.61,7.61,4.75,13.66,6.94,1.41,.39,6.63-.9,5.01-2.67-1.4-1.1-5.4-3.07-2.33-4.69,.33-.24,.49-.53,.37-.98-.19-.76,.16-1.32,.87-1.68-.25-.71-.08-1.56,.8-1.58,2.55,.06,4.3-2.4,6.88-2.25,2.5,.16,4.94,1.55,6.65,3.37,2.46,2.61,1.21,6.46-1.11,8.73-2.12,1.98-5.61,.91-7.19,3.8,7.3-.49,8.51-.84,13.91-5.83,1.1-1.24,4.43-1.59,4.05-3.57-2.3-6.25,2.57-12.51,1.05-18.97Zm-36.06,66.36c-5.93,4.93,2.24,16.87-.75,26.16,.13,1.46,1.56,2.57,2.3,3.8,1.24,1.55,1.02,3.3,1.25,5.21,5.31-5.66,5.02-16.61,13.9-18.53,5.62-3.07-9.76-6.72-11.25-9.27-2.48-2.01-4.1-4.46-5.45-7.37Z"/></g></svg>